<?xml version="1.0" encoding="utf-8"?>
<!-- Generator: Adobe Illustrator 25.4.1, SVG Export Plug-In . SVG Version: 6.00 Build 0)  -->
<svg version="1.1" id="Layer_1" xmlns="http://www.w3.org/2000/svg" xmlns:xlink="http://www.w3.org/1999/xlink" x="0px" y="0px"
	 viewBox="0 0 115 25" style="enable-background:new 0 0 115 25;" xml:space="preserve">
<style type="text/css">
	.st0{fill:#CE0202;stroke:#FF572E;stroke-miterlimit:10;}
	.st1{fill:#E73400;stroke:#FF2217;stroke-miterlimit:10;}
	.st2{fill:#B90F00;}
	.st3{font-family:'Century';}
	.st4{font-size:21px;}
</style>
<path class="st0" d="M22.6,17.9l-4.5-9l-2.6,2.8H5v-0.2h10.3l2.9-3.1l4.3,8.6l1.8-5.6h2.6l1.4,1.8l2.1-4.4l2.8,5.9l1.7-3.4h11v0.2
	H35.1l-2,4l-2.8-5.8l-2,4.2l-1.8-2.3h-2L22.6,17.9z"/>
<path class="st1" d="M24.1,24l-0.2-0.1c0,0-1.4-0.7-3.4-2c-1.9-1.2-4.7-3.2-7.4-5.7c-1.3-1.2-2.2-2.4-2.9-3.6l0.5-0.2
	c0.6,1.2,1.6,2.4,2.8,3.5c4.8,4.5,9.8,7.2,10.6,7.6c0.8-0.4,5.8-3.1,10.6-7.6c1.3-1.2,2.3-2.5,2.9-3.8c0.6-1.2,0.8-2.3,0.8-3.5
	c0-2-0.9-3.9-2.4-5.3c-1.3-1.2-3-1.8-4.8-1.8s-3.5,0.7-4.8,1.8L24,5.5l-2.4-2.2c-1.3-1.2-3-1.8-4.8-1.8S13.3,2.2,12,3.3
	c-0.9,0.8-1.6,1.9-2,3.1c-0.3,1.3-0.4,2.7,0,4.1l-0.5,0.1c-0.4-1.5-0.3-3,0.2-4.4c0.3-1.2,1-2.3,2-3.2c1.4-1.3,3.2-2,5.2-2
	s3.8,0.7,5.2,2l2,1.9l2-1.9c1.4-1.3,3.2-2,5.2-2s3.8,0.7,5.2,2C38.1,4.4,39,6.5,39,8.6c0,1.2-0.3,2.5-0.9,3.7
	c-0.7,1.4-1.7,2.7-3,3.9c-2.8,2.6-5.6,4.5-7.4,5.7c-2,1.3-3.4,2-3.4,2L24.1,24L24.1,24z"/>
<text transform="matrix(1.1111 1.261423e-04 -1.135293e-04 1 45.9002 16.5626)" class="st2 st3 st4">I Care</text>
</svg>
